<svg width="168.000000" height="32.000000" viewBox="0 0 168 32" fill="none" xmlns="http://www.w3.org/2000/svg" xmlns:xlink="http://www.w3.org/1999/xlink">
	<desc>
			Created with Pixso.
	</desc>
	<defs>
		<clipPath id="clip1_2014">
			<rect id="IMAGE" width="168.000000" height="32.000000" fill="white" fill-opacity="0"/>
		</clipPath>
	</defs>
	<g clip-path="url(#clip1_2014)">
		<path id="Vector" d="M138.86 31.75C133.11 31.75 129.1 27.62 129.1 21.71C129.05 18.96 130.07 16.3 131.96 14.31C132.9 13.36 134.02 12.61 135.25 12.11C136.49 11.61 137.81 11.36 139.14 11.38L139.14 11.66C136.67 12.82 134.95 16.29 134.95 20.1C134.95 24.84 137.66 27.67 142.2 27.67C144.03 27.75 145.84 27.18 147.29 26.06L147.29 26.41C146.59 28.05 145.41 29.44 143.9 30.39C142.4 31.34 140.64 31.82 138.86 31.75ZM90.09 31.75C86.37 31.75 84.06 29.32 84.06 25.4L84.06 14.41L80.73 14.41L80.73 13.98L89.19 6.24L89.66 6.24L89.66 23.75C89.66 26.62 91.23 28.34 93.86 28.34C94.71 28.33 95.56 28.17 96.37 27.87L96.37 28.14C95.71 29.24 94.79 30.15 93.7 30.82C92.6 31.45 91.36 31.77 90.09 31.75ZM64.38 31.75C63.31 31.76 62.26 31.52 61.3 31.05C60.34 30.58 59.5 29.9 58.85 29.05C57.41 27.1 56.66 24.72 56.73 22.29C56.67 19.41 57.72 16.61 59.65 14.46C60.58 13.48 61.7 12.7 62.95 12.17C64.19 11.64 65.53 11.37 66.89 11.38C68.01 11.36 69.13 11.56 70.18 11.97L70.18 12.28C69.15 12.28 68.13 12.5 67.2 12.94C66.26 13.38 65.44 14.02 64.78 14.82C63.34 16.64 62.59 18.91 62.65 21.24C62.65 25.2 64.83 27.99 67.95 28.03C68.77 28.02 69.57 27.82 70.3 27.44L70.3 27.67C68.94 30.34 66.9 31.75 64.38 31.75ZM44.74 31.75C38.99 31.75 34.98 27.62 34.98 21.71C34.93 18.96 35.96 16.3 37.85 14.31C38.79 13.36 39.92 12.62 41.15 12.11C42.39 11.61 43.71 11.36 45.05 11.38L45.05 11.66C42.55 12.83 40.81 16.3 40.81 20.1C40.81 24.77 43.59 27.67 48.07 27.67C49.9 27.75 51.71 27.18 53.16 26.06L53.16 26.41C52.47 28.06 51.29 29.44 49.78 30.4C48.28 31.35 46.52 31.83 44.74 31.75ZM9.73 31.75C6.01 31.75 3.7 29.32 3.7 25.39L3.7 14.4L0.32 14.4L0.32 13.97L8.83 6.24L9.3 6.24L9.3 23.75C9.3 26.62 10.85 28.34 13.46 28.34C14.33 28.33 15.19 28.17 16 27.87L16 28.14C15.33 29.23 14.4 30.15 13.31 30.81C12.22 31.45 10.99 31.77 9.73 31.75L9.73 31.75ZM118.79 31.64L118.4 31.64L110.28 11.77L116.32 11.77L121.81 25.32L118.79 31.64L118.79 31.64ZM107.85 31.64L107.46 31.64L99.35 11.77L105.38 11.77L110.87 25.32L107.85 31.64L107.85 31.64ZM167.59 31.36L161.99 31.36L161.99 1.61L167.59 0.94L167.59 31.36ZM156.97 31.36L151.37 31.36L151.37 1.61L156.97 0.94L156.97 31.36ZM76.88 31.36L71.28 31.36L71.28 12.01L76.88 11.38L76.88 31.36ZM25.45 31.36L19.85 31.36L19.85 12.01L25.45 11.38L25.45 31.36L25.45 31.36ZM139.33 23.2C138.44 23.2 137.56 23.06 136.7 22.81L136.7 22.53C139.61 22.29 141.88 19.22 141.88 15.54C141.88 13.54 141.33 12.24 140.23 11.66L140.23 11.38C142.04 11.35 143.82 11.92 145.29 12.99C145.89 13.44 146.37 14.02 146.71 14.69C147.05 15.36 147.23 16.1 147.24 16.85C147.21 17.72 146.99 18.58 146.58 19.35C146.18 20.13 145.6 20.8 144.9 21.32C143.31 22.56 141.35 23.22 139.33 23.2L139.33 23.2ZM45.25 23.2C44.36 23.2 43.47 23.07 42.62 22.81L42.62 22.53C45.5 22.28 47.76 19.21 47.76 15.54C47.76 13.55 47.21 12.24 46.11 11.66L46.11 11.38C47.93 11.35 49.7 11.92 51.17 13C51.77 13.44 52.25 14.03 52.59 14.69C52.93 15.36 53.11 16.1 53.12 16.85C53.09 17.72 52.87 18.58 52.47 19.35C52.07 20.13 51.5 20.8 50.8 21.32C49.21 22.56 47.26 23.23 45.25 23.2L45.25 23.2ZM124.04 19.35L123.77 19.35C123.6 16.73 122.97 14.16 121.89 11.77L127.88 11.77L124.04 19.34L124.04 19.35ZM26.32 17.35L26.32 17.15C26.52 15.59 27.15 14.12 28.15 12.9C28.61 12.4 29.18 12 29.81 11.74C30.44 11.48 31.12 11.36 31.8 11.38C32.26 11.37 32.73 11.44 33.17 11.58L33.17 16.13C32.46 15.83 31.7 15.7 30.94 15.73C30.1 15.67 29.25 15.78 28.46 16.06C27.66 16.33 26.93 16.77 26.31 17.34L26.31 17.35L26.32 17.35ZM96.48 14.4L91.04 14.4L91.04 11.77L96.48 11.77L96.48 14.4L96.48 14.4ZM16.12 14.4L10.67 14.4L10.67 11.77L16.12 11.77L16.12 14.4L16.12 14.4L16.12 14.4Z" fill="#FFFFFF" fill-opacity="1.000000" fill-rule="nonzero"/>
	</g>
</svg>
