<svg width="133.000000" height="38.000000" viewBox="0 0 133 38" fill="none" xmlns="http://www.w3.org/2000/svg" xmlns:xlink="http://www.w3.org/1999/xlink">
	<desc>
			Created with Pixso.
	</desc>
	<defs/>
	<path id="Vector" d="M91.24 27.84C89.26 29.95 86.71 31.02 83.68 31.02C80.64 31.02 78.1 29.95 76.12 27.84C74.23 25.83 73.15 22.62 73.15 19.02C73.15 15.52 74.24 12.35 76.15 10.33C78.15 8.22 80.68 7.14 83.68 7.13C86.67 7.14 89.2 8.22 91.2 10.33C93.11 12.35 94.21 15.52 94.21 19.02C94.21 22.62 93.13 25.83 91.24 27.84ZM64.67 19.02C64.67 19.19 64.67 19.35 64.68 19.51C61.64 16.76 57.25 15.74 54.57 15.21C49.61 14.17 45.82 13.22 45.82 9.71C45.82 7.23 48.05 5.43 52.34 5.74C56.26 6.02 57.91 8.4 58.36 10.7C58.42 11.07 58.6 11.35 59.03 11.35L66.08 11.41C66.11 11.41 66.14 11.41 66.17 11.4C65.18 13.71 64.67 16.27 64.67 19.02ZM52.68 31.9C49.27 31.9 45.52 30.7 44.65 26.05C44.58 25.6 44.37 25.42 44.03 25.41L37.21 25.32L37.21 13.35C38.11 16.86 41.08 19.29 47.49 20.72C51.78 21.74 59.23 22.39 59.23 26.77C59.23 29.82 56.96 31.97 52.68 31.9ZM18.75 31.03C13.26 31.03 8.22 26.73 8.22 19.03C8.22 12.99 12 7.14 18.79 7.14C21.73 7.14 29.19 8.14 29.19 19.03C29.19 29.95 21.4 31.03 18.75 31.03L18.75 31.03ZM102.49 16.09C104.05 18.16 106.87 19.7 111.46 20.72C115.75 21.74 123.2 22.39 123.2 26.77C123.2 29.82 120.93 31.97 116.65 31.9C113.25 31.9 109.49 30.7 108.62 26.05C108.55 25.6 108.34 25.42 108 25.41L101.68 25.33C102.35 23.37 102.69 21.26 102.69 19.03C102.69 18.04 102.62 17.06 102.49 16.09ZM116.19 38C123.75 38 132.65 35.2 131.96 26.13C131.19 18.08 122.76 16.04 118.54 15.21C113.58 14.17 109.79 13.22 109.79 9.71C109.79 7.23 112.02 5.43 116.31 5.74C120.23 6.02 121.88 8.4 122.33 10.7C122.39 11.07 122.57 11.35 123 11.35L130.05 11.41C130.58 11.41 130.75 11.14 130.68 10.76C129.3 2.37 122.25 0 115.75 0C109.27 0 101.46 1.8 100.9 9.82C100.88 10.13 100.88 10.43 100.88 10.73C99.85 8.6 98.36 6.64 96.44 4.91C92.9 1.74 88.49 0.04 83.67 0L83.51 0C81.21 0 78.96 0.42 76.82 1.25C74.65 2.11 72.65 3.35 70.92 4.91C69.1 6.55 67.67 8.39 66.64 10.39C65.12 2.3 58.18 0 51.78 0C45.83 0 38.76 1.52 37.21 7.98L37.21 1.57C37.21 1.41 37.15 1.25 37.03 1.13C36.91 1.02 36.76 0.95 36.59 0.95L29.95 0.95C29.79 0.95 29.63 1.02 29.51 1.14C29.4 1.25 29.33 1.41 29.33 1.57L29.33 3.3C29.33 3.59 29.14 3.69 28.9 3.52C26.54 1.82 23.04 0 18.84 0C16.48 0 14.23 0.41 12.14 1.22C10.05 2.04 8.07 3.28 6.24 4.91C4.17 6.79 2.59 8.92 1.56 11.26C0.52 13.6 0 16.21 0 19.03C0 21.65 0.46 24.12 1.38 26.34C2.29 28.57 3.69 30.63 5.53 32.46C7.36 34.3 9.42 35.69 11.63 36.61C13.84 37.53 16.28 37.99 18.88 37.99C23.34 37.99 26.7 36.1 28.89 34.38C29.13 34.2 29.33 34.3 29.33 34.6L29.33 36.41C29.33 36.76 29.61 37.03 29.96 37.03L36.59 37.03C36.76 37.03 36.91 36.97 37.03 36.85C37.15 36.74 37.21 36.58 37.21 36.41L37.21 30.3C40.34 37.61 48.31 37.99 52.22 37.99C58.74 37.99 66.26 35.91 67.76 29.51C68.47 30.57 69.29 31.56 70.2 32.46C73.76 36.01 78.42 37.93 83.68 37.98L83.9 37.98C86.4 37.98 88.81 37.51 91.07 36.56C93.35 35.61 95.42 34.21 97.16 32.46C98.46 31.17 99.57 29.71 100.45 28.11C102.82 37.54 111.93 37.99 116.19 37.99L116.19 38Z" fill="#FFFFFF" fill-opacity="1.000000" fill-rule="evenodd"/>
</svg>
