<svg width="88.000000" height="28.000000" viewBox="0 0 88 28" fill="none" xmlns="http://www.w3.org/2000/svg" xmlns:xlink="http://www.w3.org/1999/xlink">
	<desc>
			Created with Pixso.
	</desc>
	<defs/>
	<path id="Vector" d="M14.44 5.62L22.77 5.62L22.77 0.42L0 0.42L0 5.62L8.29 5.62L8.29 27.57L14.44 27.57L14.44 5.62ZM49.31 27.57L55.46 27.57L55.46 0.42L49.31 0.42L49.31 11.75L36.97 11.75L36.97 0.42L30.82 0.42L30.82 27.57L36.97 27.57L36.97 16.86L49.31 16.86L49.31 27.57ZM84.53 8.41L88 4.03C86.59 2.79 84.93 1.8 82.99 1.08C81.06 0.36 79.08 0 77.06 0C74.28 0 71.76 0.6 69.48 1.82C67.21 3.03 65.43 4.71 64.13 6.84C62.83 8.97 62.18 11.35 62.18 13.96C62.18 16.59 62.82 18.98 64.09 21.11C65.36 23.24 67.1 24.93 69.31 26.15C71.51 27.38 73.98 28 76.71 28C78.57 28 80.52 27.67 82.55 27.01C84.57 26.35 86.31 25.49 87.76 24.43L87.76 13.88L82.43 13.88L82.43 21.13C81.55 21.6 80.64 21.96 79.7 22.24C78.77 22.51 77.9 22.64 77.1 22.64C75.51 22.64 74.06 22.26 72.75 21.5C71.44 20.74 70.41 19.69 69.64 18.36C68.87 17.03 68.49 15.56 68.49 13.96C68.49 12.35 68.87 10.9 69.62 9.59C70.37 8.29 71.41 7.25 72.72 6.49C74.03 5.73 75.47 5.35 77.06 5.35C78.38 5.35 79.7 5.62 81.03 6.16C82.35 6.7 83.52 7.45 84.53 8.41Z" fill="#FFFFFF" fill-opacity="1.000000" fill-rule="evenodd"/>
</svg>
