<svg width="26.000000" height="40.000000" viewBox="0 0 26 40" fill="none" xmlns="http://www.w3.org/2000/svg" xmlns:xlink="http://www.w3.org/1999/xlink">
	<desc>
			Created with Pixso.
	</desc>
	<defs>
		<linearGradient id="paint_linear_1_17_0" x1="12.653305" y1="-0.500000" x2="12.653305" y2="39.317001" gradientUnits="userSpaceOnUse">
			<stop stop-color="#7E5FFF"/>
			<stop offset="1.000000" stop-color="#39AAFF"/>
		</linearGradient>
	</defs>
	<path id="Vector" d="M25.3 3.38L18.38 -0.5L0 9.38L0 17.18L4.35 19.5L0 21.86L0 35.55L6.94 39.31L13.91 35.57L13.91 29.45L25.3 23.33L25.3 3.38ZM2.51 10.84L18.38 2.3L21.5 4.06L6.95 11.8L6.95 14.58L22.81 6.14L22.8 21.84L11.41 28L11.41 34.15L6.96 36.55L2.5 34.13L2.5 23.31L17.1 15.4L17.1 18.7L5.71 24.93L5.71 32.51L8.21 31.17L8.21 26.36L19.6 20.12L19.6 11.23L6.96 18.09L2.51 15.72L2.51 10.84Z" fill="url(#paint_linear_1_17_0)" fill-opacity="1.000000" fill-rule="evenodd"/>
</svg>
